<mxfile host="app.diagrams.net" agent="Mozilla/5.0 (Windows NT 10.0; Win64; x64; rv:132.0) Gecko/20100101 Firefox/132.0" version="24.9.1">
  <diagram name="P치gina-1" id="DvtGWp3MwGRlvQhZWsbG">
    <mxGraphModel grid="1" page="1" gridSize="10" guides="1" tooltips="1" connect="1" arrows="1" fold="1" pageScale="1" pageWidth="827" pageHeight="1169" math="0" shadow="0">
      <root>
        <mxCell id="0" />
        <mxCell id="1" parent="0" />
        <mxCell id="20Wc5NVNt5mtbA7lKVf4-18" style="edgeStyle=orthogonalEdgeStyle;rounded=0;orthogonalLoop=1;jettySize=auto;html=1;exitX=1;exitY=0.5;exitDx=0;exitDy=0;entryX=0;entryY=1;entryDx=0;entryDy=0;" edge="1" parent="1" source="20Wc5NVNt5mtbA7lKVf4-1" target="20Wc5NVNt5mtbA7lKVf4-13">
          <mxGeometry relative="1" as="geometry" />
        </mxCell>
        <mxCell id="20Wc5NVNt5mtbA7lKVf4-1" value="ID" style="ellipse;whiteSpace=wrap;html=1;aspect=fixed;" vertex="1" parent="1">
          <mxGeometry x="160" y="470" width="70" height="70" as="geometry" />
        </mxCell>
        <mxCell id="20Wc5NVNt5mtbA7lKVf4-19" style="edgeStyle=orthogonalEdgeStyle;rounded=0;orthogonalLoop=1;jettySize=auto;html=1;exitX=1;exitY=0.5;exitDx=0;exitDy=0;entryX=0;entryY=1;entryDx=0;entryDy=0;" edge="1" parent="1" source="20Wc5NVNt5mtbA7lKVf4-2" target="20Wc5NVNt5mtbA7lKVf4-13">
          <mxGeometry relative="1" as="geometry" />
        </mxCell>
        <mxCell id="20Wc5NVNt5mtbA7lKVf4-2" value="Nombre" style="ellipse;whiteSpace=wrap;html=1;aspect=fixed;fillColor=#dae8fc;strokeColor=#6c8ebf;" vertex="1" parent="1">
          <mxGeometry x="160" y="400" width="70" height="70" as="geometry" />
        </mxCell>
        <mxCell id="20Wc5NVNt5mtbA7lKVf4-3" value="Poblaci칩n" style="ellipse;whiteSpace=wrap;html=1;aspect=fixed;fillColor=#dae8fc;strokeColor=#6c8ebf;" vertex="1" parent="1">
          <mxGeometry x="40" y="190" width="70" height="70" as="geometry" />
        </mxCell>
        <mxCell id="20Wc5NVNt5mtbA7lKVf4-4" value="Provincia" style="ellipse;whiteSpace=wrap;html=1;aspect=fixed;fillColor=#dae8fc;strokeColor=#6c8ebf;" vertex="1" parent="1">
          <mxGeometry x="40" y="120" width="70" height="70" as="geometry" />
        </mxCell>
        <mxCell id="20Wc5NVNt5mtbA7lKVf4-5" value="CP" style="ellipse;whiteSpace=wrap;html=1;aspect=fixed;fillColor=#dae8fc;strokeColor=#6c8ebf;" vertex="1" parent="1">
          <mxGeometry x="40" y="50" width="70" height="70" as="geometry" />
        </mxCell>
        <mxCell id="20Wc5NVNt5mtbA7lKVf4-20" style="edgeStyle=orthogonalEdgeStyle;rounded=0;orthogonalLoop=1;jettySize=auto;html=1;exitX=1;exitY=0.5;exitDx=0;exitDy=0;entryX=0;entryY=0.75;entryDx=0;entryDy=0;" edge="1" parent="1" source="20Wc5NVNt5mtbA7lKVf4-6" target="20Wc5NVNt5mtbA7lKVf4-13">
          <mxGeometry relative="1" as="geometry" />
        </mxCell>
        <mxCell id="20Wc5NVNt5mtbA7lKVf4-6" value="Apellidos" style="ellipse;whiteSpace=wrap;html=1;aspect=fixed;fillColor=#dae8fc;strokeColor=#6c8ebf;" vertex="1" parent="1">
          <mxGeometry x="160" y="330" width="70" height="70" as="geometry" />
        </mxCell>
        <mxCell id="20Wc5NVNt5mtbA7lKVf4-7" value="Tel." style="ellipse;whiteSpace=wrap;html=1;aspect=fixed;fillColor=#dae8fc;strokeColor=#6c8ebf;" vertex="1" parent="1">
          <mxGeometry x="160" y="260" width="70" height="70" as="geometry" />
        </mxCell>
        <mxCell id="20Wc5NVNt5mtbA7lKVf4-15" style="edgeStyle=orthogonalEdgeStyle;rounded=0;orthogonalLoop=1;jettySize=auto;html=1;exitX=1;exitY=0.5;exitDx=0;exitDy=0;entryX=0;entryY=0;entryDx=0;entryDy=0;" edge="1" parent="1" source="20Wc5NVNt5mtbA7lKVf4-8" target="20Wc5NVNt5mtbA7lKVf4-13">
          <mxGeometry relative="1" as="geometry" />
        </mxCell>
        <mxCell id="20Wc5NVNt5mtbA7lKVf4-8" value="&lt;div&gt;FechaN.&lt;/div&gt;" style="ellipse;whiteSpace=wrap;html=1;aspect=fixed;fillColor=#dae8fc;strokeColor=#6c8ebf;" vertex="1" parent="1">
          <mxGeometry x="160" y="190" width="70" height="70" as="geometry" />
        </mxCell>
        <mxCell id="20Wc5NVNt5mtbA7lKVf4-10" style="edgeStyle=orthogonalEdgeStyle;rounded=0;orthogonalLoop=1;jettySize=auto;html=1;exitX=0;exitY=0.5;exitDx=0;exitDy=0;entryX=1;entryY=0.5;entryDx=0;entryDy=0;" edge="1" parent="1" source="20Wc5NVNt5mtbA7lKVf4-9" target="20Wc5NVNt5mtbA7lKVf4-5">
          <mxGeometry relative="1" as="geometry" />
        </mxCell>
        <mxCell id="20Wc5NVNt5mtbA7lKVf4-11" style="edgeStyle=orthogonalEdgeStyle;rounded=0;orthogonalLoop=1;jettySize=auto;html=1;exitX=0;exitY=0.5;exitDx=0;exitDy=0;entryX=1;entryY=0.5;entryDx=0;entryDy=0;" edge="1" parent="1" source="20Wc5NVNt5mtbA7lKVf4-9" target="20Wc5NVNt5mtbA7lKVf4-4">
          <mxGeometry relative="1" as="geometry" />
        </mxCell>
        <mxCell id="20Wc5NVNt5mtbA7lKVf4-12" style="edgeStyle=orthogonalEdgeStyle;rounded=0;orthogonalLoop=1;jettySize=auto;html=1;exitX=0;exitY=0.5;exitDx=0;exitDy=0;entryX=1;entryY=0.5;entryDx=0;entryDy=0;" edge="1" parent="1" source="20Wc5NVNt5mtbA7lKVf4-9" target="20Wc5NVNt5mtbA7lKVf4-3">
          <mxGeometry relative="1" as="geometry">
            <mxPoint x="120" y="230" as="targetPoint" />
          </mxGeometry>
        </mxCell>
        <mxCell id="20Wc5NVNt5mtbA7lKVf4-14" style="edgeStyle=orthogonalEdgeStyle;rounded=0;orthogonalLoop=1;jettySize=auto;html=1;exitX=1;exitY=0.5;exitDx=0;exitDy=0;entryX=0;entryY=0;entryDx=0;entryDy=0;" edge="1" parent="1" source="20Wc5NVNt5mtbA7lKVf4-9" target="20Wc5NVNt5mtbA7lKVf4-13">
          <mxGeometry relative="1" as="geometry" />
        </mxCell>
        <mxCell id="20Wc5NVNt5mtbA7lKVf4-9" value="Direcci칩n" style="ellipse;whiteSpace=wrap;html=1;aspect=fixed;fillColor=#dae8fc;strokeColor=#6c8ebf;" vertex="1" parent="1">
          <mxGeometry x="160" y="120" width="70" height="70" as="geometry" />
        </mxCell>
        <mxCell id="20Wc5NVNt5mtbA7lKVf4-13" value="Paciente" style="rounded=0;whiteSpace=wrap;html=1;" vertex="1" parent="1">
          <mxGeometry x="270" y="290" width="120" height="60" as="geometry" />
        </mxCell>
        <mxCell id="20Wc5NVNt5mtbA7lKVf4-22" style="edgeStyle=orthogonalEdgeStyle;rounded=0;orthogonalLoop=1;jettySize=auto;html=1;exitX=1;exitY=0.5;exitDx=0;exitDy=0;entryX=0.008;entryY=0.367;entryDx=0;entryDy=0;entryPerimeter=0;" edge="1" parent="1" source="20Wc5NVNt5mtbA7lKVf4-7" target="20Wc5NVNt5mtbA7lKVf4-13">
          <mxGeometry relative="1" as="geometry" />
        </mxCell>
        <mxCell id="20Wc5NVNt5mtbA7lKVf4-32" style="edgeStyle=orthogonalEdgeStyle;rounded=0;orthogonalLoop=1;jettySize=auto;html=1;exitX=1;exitY=0.5;exitDx=0;exitDy=0;entryX=0.5;entryY=0;entryDx=0;entryDy=0;" edge="1" parent="1" source="20Wc5NVNt5mtbA7lKVf4-23" target="20Wc5NVNt5mtbA7lKVf4-28">
          <mxGeometry relative="1" as="geometry" />
        </mxCell>
        <mxCell id="20Wc5NVNt5mtbA7lKVf4-23" value="Realiza" style="rhombus;whiteSpace=wrap;html=1;" vertex="1" parent="1">
          <mxGeometry x="490" y="280" width="150" height="80" as="geometry" />
        </mxCell>
        <mxCell id="20Wc5NVNt5mtbA7lKVf4-24" style="edgeStyle=orthogonalEdgeStyle;rounded=0;orthogonalLoop=1;jettySize=auto;html=1;exitX=1;exitY=0.5;exitDx=0;exitDy=0;entryX=0;entryY=0.5;entryDx=0;entryDy=0;" edge="1" parent="1" source="20Wc5NVNt5mtbA7lKVf4-13" target="20Wc5NVNt5mtbA7lKVf4-23">
          <mxGeometry relative="1" as="geometry" />
        </mxCell>
        <mxCell id="20Wc5NVNt5mtbA7lKVf4-25" value="(1,1)" style="text;html=1;align=center;verticalAlign=middle;resizable=0;points=[];autosize=1;strokeColor=none;fillColor=none;" vertex="1" parent="1">
          <mxGeometry x="390" y="330" width="50" height="30" as="geometry" />
        </mxCell>
        <mxCell id="20Wc5NVNt5mtbA7lKVf4-26" value="&lt;font color=&quot;#67ab9f&quot;&gt;Es realizado&lt;/font&gt;" style="text;html=1;align=center;verticalAlign=middle;resizable=0;points=[];autosize=1;strokeColor=none;fillColor=none;" vertex="1" parent="1">
          <mxGeometry x="400" y="280" width="90" height="30" as="geometry" />
        </mxCell>
        <mxCell id="20Wc5NVNt5mtbA7lKVf4-27" value="&lt;font color=&quot;#ffb570&quot; style=&quot;font-size: 22px;&quot;&gt;1:N&lt;/font&gt;" style="text;html=1;align=center;verticalAlign=middle;resizable=0;points=[];autosize=1;strokeColor=none;fillColor=none;" vertex="1" parent="1">
          <mxGeometry x="535" y="233" width="60" height="40" as="geometry" />
        </mxCell>
        <mxCell id="20Wc5NVNt5mtbA7lKVf4-28" value="" style="rounded=0;whiteSpace=wrap;html=1;" vertex="1" parent="1">
          <mxGeometry x="660" y="460" width="120" height="60" as="geometry" />
        </mxCell>
        <mxCell id="20Wc5NVNt5mtbA7lKVf4-31" value="Ingreso" style="rounded=0;whiteSpace=wrap;html=1;" vertex="1" parent="1">
          <mxGeometry x="670" y="465" width="100" height="50" as="geometry" />
        </mxCell>
        <mxCell id="20Wc5NVNt5mtbA7lKVf4-33" value="&lt;font color=&quot;#67ab9f&quot;&gt;Realiza&lt;/font&gt;" style="text;html=1;align=center;verticalAlign=middle;resizable=0;points=[];autosize=1;strokeColor=none;fillColor=none;" vertex="1" parent="1">
          <mxGeometry x="660" y="280" width="60" height="30" as="geometry" />
        </mxCell>
        <mxCell id="20Wc5NVNt5mtbA7lKVf4-39" style="edgeStyle=orthogonalEdgeStyle;rounded=0;orthogonalLoop=1;jettySize=auto;html=1;exitX=1;exitY=0.5;exitDx=0;exitDy=0;entryX=0;entryY=0;entryDx=0;entryDy=0;" edge="1" parent="1" source="20Wc5NVNt5mtbA7lKVf4-34" target="20Wc5NVNt5mtbA7lKVf4-28">
          <mxGeometry relative="1" as="geometry" />
        </mxCell>
        <mxCell id="20Wc5NVNt5mtbA7lKVf4-34" value="C칩digo" style="ellipse;whiteSpace=wrap;html=1;aspect=fixed;dashed=1;fillColor=#dae8fc;strokeColor=#6c8ebf;" vertex="1" parent="1">
          <mxGeometry x="500" y="380" width="60" height="60" as="geometry" />
        </mxCell>
        <mxCell id="20Wc5NVNt5mtbA7lKVf4-35" value="N.Habi" style="ellipse;whiteSpace=wrap;html=1;aspect=fixed;fillColor=#dae8fc;strokeColor=#6c8ebf;" vertex="1" parent="1">
          <mxGeometry x="500" y="440" width="60" height="60" as="geometry" />
        </mxCell>
        <mxCell id="20Wc5NVNt5mtbA7lKVf4-42" style="edgeStyle=orthogonalEdgeStyle;rounded=0;orthogonalLoop=1;jettySize=auto;html=1;exitX=1;exitY=0.5;exitDx=0;exitDy=0;entryX=0;entryY=0.75;entryDx=0;entryDy=0;" edge="1" parent="1" source="20Wc5NVNt5mtbA7lKVf4-36" target="20Wc5NVNt5mtbA7lKVf4-28">
          <mxGeometry relative="1" as="geometry" />
        </mxCell>
        <mxCell id="20Wc5NVNt5mtbA7lKVf4-36" value="N.Cama" style="ellipse;whiteSpace=wrap;html=1;aspect=fixed;fillColor=#dae8fc;strokeColor=#6c8ebf;" vertex="1" parent="1">
          <mxGeometry x="500" y="500" width="60" height="60" as="geometry" />
        </mxCell>
        <mxCell id="20Wc5NVNt5mtbA7lKVf4-40" style="edgeStyle=orthogonalEdgeStyle;rounded=0;orthogonalLoop=1;jettySize=auto;html=1;exitX=1;exitY=0.5;exitDx=0;exitDy=0;entryX=0;entryY=1;entryDx=0;entryDy=0;" edge="1" parent="1" source="20Wc5NVNt5mtbA7lKVf4-38" target="20Wc5NVNt5mtbA7lKVf4-28">
          <mxGeometry relative="1" as="geometry" />
        </mxCell>
        <mxCell id="20Wc5NVNt5mtbA7lKVf4-38" value="F. Ingreso" style="ellipse;whiteSpace=wrap;html=1;aspect=fixed;fillColor=#dae8fc;strokeColor=#6c8ebf;" vertex="1" parent="1">
          <mxGeometry x="500" y="560" width="60" height="60" as="geometry" />
        </mxCell>
        <mxCell id="20Wc5NVNt5mtbA7lKVf4-41" style="edgeStyle=orthogonalEdgeStyle;rounded=0;orthogonalLoop=1;jettySize=auto;html=1;exitX=1;exitY=0.5;exitDx=0;exitDy=0;entryX=0.017;entryY=0.383;entryDx=0;entryDy=0;entryPerimeter=0;" edge="1" parent="1" source="20Wc5NVNt5mtbA7lKVf4-35" target="20Wc5NVNt5mtbA7lKVf4-28">
          <mxGeometry relative="1" as="geometry" />
        </mxCell>
        <mxCell id="20Wc5NVNt5mtbA7lKVf4-46" style="edgeStyle=orthogonalEdgeStyle;rounded=0;orthogonalLoop=1;jettySize=auto;html=1;exitX=0.5;exitY=0;exitDx=0;exitDy=0;entryX=0.5;entryY=1;entryDx=0;entryDy=0;" edge="1" parent="1" source="20Wc5NVNt5mtbA7lKVf4-44" target="20Wc5NVNt5mtbA7lKVf4-28">
          <mxGeometry relative="1" as="geometry" />
        </mxCell>
        <mxCell id="20Wc5NVNt5mtbA7lKVf4-51" style="edgeStyle=orthogonalEdgeStyle;rounded=0;orthogonalLoop=1;jettySize=auto;html=1;exitX=0.5;exitY=1;exitDx=0;exitDy=0;entryX=0.5;entryY=0;entryDx=0;entryDy=0;" edge="1" parent="1" source="20Wc5NVNt5mtbA7lKVf4-44" target="20Wc5NVNt5mtbA7lKVf4-50">
          <mxGeometry relative="1" as="geometry" />
        </mxCell>
        <mxCell id="20Wc5NVNt5mtbA7lKVf4-44" value="Atiende" style="rhombus;whiteSpace=wrap;html=1;" vertex="1" parent="1">
          <mxGeometry x="645" y="690" width="150" height="80" as="geometry" />
        </mxCell>
        <mxCell id="20Wc5NVNt5mtbA7lKVf4-47" value="&lt;font color=&quot;#67ab9f&quot;&gt;Atiende&lt;/font&gt;" style="text;html=1;align=center;verticalAlign=middle;resizable=0;points=[];autosize=1;strokeColor=none;fillColor=none;" vertex="1" parent="1">
          <mxGeometry x="730" y="588" width="60" height="30" as="geometry" />
        </mxCell>
        <mxCell id="20Wc5NVNt5mtbA7lKVf4-48" value="(1,n)" style="text;html=1;align=center;verticalAlign=middle;resizable=0;points=[];autosize=1;strokeColor=none;fillColor=none;" vertex="1" parent="1">
          <mxGeometry x="730" y="420" width="50" height="30" as="geometry" />
        </mxCell>
        <mxCell id="20Wc5NVNt5mtbA7lKVf4-49" value="(1,n)" style="text;html=1;align=center;verticalAlign=middle;resizable=0;points=[];autosize=1;strokeColor=none;fillColor=none;" vertex="1" parent="1">
          <mxGeometry x="720" y="520" width="50" height="30" as="geometry" />
        </mxCell>
        <mxCell id="20Wc5NVNt5mtbA7lKVf4-50" value="M칠dico" style="rounded=0;whiteSpace=wrap;html=1;" vertex="1" parent="1">
          <mxGeometry x="660" y="870" width="120" height="60" as="geometry" />
        </mxCell>
        <mxCell id="20Wc5NVNt5mtbA7lKVf4-52" value="&lt;font color=&quot;#67ab9f&quot;&gt;Es atendido&lt;br&gt;&lt;/font&gt;" style="text;html=1;align=center;verticalAlign=middle;resizable=0;points=[];autosize=1;" vertex="1" parent="1">
          <mxGeometry x="730" y="800" width="90" height="30" as="geometry" />
        </mxCell>
        <mxCell id="20Wc5NVNt5mtbA7lKVf4-53" value="(1,1)" style="text;html=1;align=center;verticalAlign=middle;resizable=0;points=[];autosize=1;strokeColor=none;fillColor=none;" vertex="1" parent="1">
          <mxGeometry x="670" y="830" width="50" height="30" as="geometry" />
        </mxCell>
        <mxCell id="20Wc5NVNt5mtbA7lKVf4-64" style="edgeStyle=orthogonalEdgeStyle;rounded=0;orthogonalLoop=1;jettySize=auto;html=1;exitX=0.5;exitY=0;exitDx=0;exitDy=0;" edge="1" parent="1" source="20Wc5NVNt5mtbA7lKVf4-54">
          <mxGeometry relative="1" as="geometry">
            <mxPoint x="690" y="930" as="targetPoint" />
          </mxGeometry>
        </mxCell>
        <mxCell id="20Wc5NVNt5mtbA7lKVf4-54" value="ID" style="ellipse;whiteSpace=wrap;html=1;aspect=fixed;" vertex="1" parent="1">
          <mxGeometry x="465" y="1030" width="70" height="70" as="geometry" />
        </mxCell>
        <mxCell id="20Wc5NVNt5mtbA7lKVf4-63" style="edgeStyle=orthogonalEdgeStyle;rounded=0;orthogonalLoop=1;jettySize=auto;html=1;exitX=0.5;exitY=0;exitDx=0;exitDy=0;entryX=0.25;entryY=1;entryDx=0;entryDy=0;" edge="1" parent="1" source="20Wc5NVNt5mtbA7lKVf4-55" target="20Wc5NVNt5mtbA7lKVf4-50">
          <mxGeometry relative="1" as="geometry" />
        </mxCell>
        <mxCell id="20Wc5NVNt5mtbA7lKVf4-55" value="Nombre" style="ellipse;whiteSpace=wrap;html=1;aspect=fixed;fillColor=#dae8fc;strokeColor=#6c8ebf;" vertex="1" parent="1">
          <mxGeometry x="540" y="1030" width="70" height="70" as="geometry" />
        </mxCell>
        <mxCell id="20Wc5NVNt5mtbA7lKVf4-61" style="edgeStyle=orthogonalEdgeStyle;rounded=0;orthogonalLoop=1;jettySize=auto;html=1;exitX=0.5;exitY=0;exitDx=0;exitDy=0;" edge="1" parent="1" source="20Wc5NVNt5mtbA7lKVf4-56">
          <mxGeometry relative="1" as="geometry">
            <mxPoint x="750" y="930" as="targetPoint" />
          </mxGeometry>
        </mxCell>
        <mxCell id="20Wc5NVNt5mtbA7lKVf4-56" value="Apellidos" style="ellipse;whiteSpace=wrap;html=1;aspect=fixed;fillColor=#dae8fc;strokeColor=#6c8ebf;" vertex="1" parent="1">
          <mxGeometry x="610" y="1030" width="70" height="70" as="geometry" />
        </mxCell>
        <mxCell id="20Wc5NVNt5mtbA7lKVf4-60" style="edgeStyle=orthogonalEdgeStyle;rounded=0;orthogonalLoop=1;jettySize=auto;html=1;exitX=0.5;exitY=0;exitDx=0;exitDy=0;entryX=0.75;entryY=1;entryDx=0;entryDy=0;" edge="1" parent="1" source="20Wc5NVNt5mtbA7lKVf4-57" target="20Wc5NVNt5mtbA7lKVf4-50">
          <mxGeometry relative="1" as="geometry" />
        </mxCell>
        <mxCell id="20Wc5NVNt5mtbA7lKVf4-57" value="Tel." style="ellipse;whiteSpace=wrap;html=1;aspect=fixed;fillColor=#dae8fc;strokeColor=#6c8ebf;" vertex="1" parent="1">
          <mxGeometry x="680" y="1030" width="70" height="70" as="geometry" />
        </mxCell>
        <mxCell id="20Wc5NVNt5mtbA7lKVf4-62" style="edgeStyle=orthogonalEdgeStyle;rounded=0;orthogonalLoop=1;jettySize=auto;html=1;exitX=0.5;exitY=0;exitDx=0;exitDy=0;" edge="1" parent="1" source="20Wc5NVNt5mtbA7lKVf4-58">
          <mxGeometry relative="1" as="geometry">
            <mxPoint x="750" y="930" as="targetPoint" />
          </mxGeometry>
        </mxCell>
        <mxCell id="20Wc5NVNt5mtbA7lKVf4-58" value="Especial." style="ellipse;whiteSpace=wrap;html=1;aspect=fixed;fillColor=#dae8fc;strokeColor=#6c8ebf;" vertex="1" parent="1">
          <mxGeometry x="750" y="1030" width="70" height="70" as="geometry" />
        </mxCell>
      </root>
    </mxGraphModel>
  </diagram>
</mxfile>
